<?xml version="1.0" standalone="no"?>
<!DOCTYPE svg PUBLIC "-//W3C//DTD SVG 20010904//EN" "http://www.w3.org/TR/2001/REC-SVG-20010904/DTD/svg10.dtd">
<svg xmlns="http://www.w3.org/2000/svg" version="1.0" width="4000.000000pt" height="4000.000000pt" viewBox="0 0 4000.000000 4000.000000" preserveAspectRatio="xMidYMid meet">
<metadata>
Created by potrace 1.16, written by Peter Selinger 2001-2019
<meta name="Producer" content="Online-Convert"/></metadata>
<g transform="translate(0.000000,4000.000000) scale(0.100000,-0.100000)" fill="#000000" stroke="none">
<path d="M0 20000 l0 -20000 20000 0 20000 0 0 20000 0 20000 -20000 0 -20000 0 0 -20000z m20995 19070 c83 -6 197 -14 255 -19 58 -5 200 -16 315 -24 116 -9 230 -19 255 -22 78 -10 189 -23 385 -45 105 -12 215 -26 245 -30 30 -5 91 -13 136 -19 76 -10 251 -37 434 -66 90 -15 181 -31 370 -65 63 -11 133 -23 155 -26 22 -3 49 -9 60 -13 11 -5 81 -20 155 -35 127 -24 372 -77 450 -95 19 -5 76 -18 125 -30 139 -32 326 -78 370 -92 22 -6 74 -20 115 -30 41 -9 91 -22 110 -28 19 -6 67 -19 105 -29 39 -10 77 -21 85 -25 8 -3 56 -17 105 -30 206 -56 615 -184 875 -273 279 -96 367 -128 375 -134 6 -4 28 -13 50 -20 55 -17 243 -88 282 -105 17 -8 34 -15 37 -15 23 0 695 -280 909 -379 37 -17 69 -31 71 -31 2 0 59 -26 127 -59 68 -32 151 -71 184 -86 33 -15 197 -96 365 -181 398 -199 434 -218 440 -225 3 -3 28 -17 55 -31 28 -13 87 -46 132 -71 45 -26 84 -47 86 -47 3 0 55 -29 117 -65 62 -36 114 -65 115 -65 2 0 34 -19 71 -42 38 -23 112 -66 164 -96 52 -29 111 -64 130 -77 19 -12 85 -53 145 -90 126 -77 160 -99 230 -143 93 -60 280 -181 295 -192 8 -6 71 -48 140 -93 69 -46 150 -101 181 -123 30 -21 110 -77 178 -124 248 -173 852 -633 1055 -804 27 -22 77 -63 110 -90 117 -94 512 -436 621 -537 28 -26 62 -57 76 -70 15 -13 46 -42 70 -63 201 -181 738 -714 1024 -1016 108 -115 341 -373 447 -496 42 -49 84 -98 95 -109 21 -23 261 -311 313 -375 77 -96 102 -126 119 -145 9 -11 45 -56 78 -100 34 -44 99 -127 143 -185 140 -180 333 -441 487 -660 128 -181 267 -388 391 -580 30 -47 78 -121 107 -165 29 -44 73 -114 98 -155 25 -41 66 -106 90 -145 24 -38 63 -104 87 -145 23 -41 51 -86 60 -100 10 -14 27 -43 39 -65 12 -22 26 -47 31 -55 122 -189 544 -989 725 -1375 155 -329 238 -512 314 -695 18 -41 43 -100 56 -130 70 -161 192 -468 285 -720 160 -434 248 -693 359 -1060 97 -316 117 -384 156 -530 20 -74 49 -182 65 -240 16 -58 47 -181 69 -275 23 -93 48 -197 56 -230 39 -160 126 -570 155 -730 11 -60 27 -144 36 -185 8 -41 21 -113 28 -160 16 -102 58 -368 86 -540 11 -69 27 -183 35 -255 8 -71 19 -159 25 -195 5 -36 16 -139 25 -230 17 -182 29 -307 45 -450 6 -52 18 -216 26 -365 8 -148 20 -369 27 -490 13 -244 16 -1254 4 -1490 -4 -82 -12 -213 -17 -290 -6 -77 -15 -237 -20 -355 -6 -118 -15 -246 -20 -285 -9 -69 -14 -121 -46 -454 -8 -90 -17 -167 -19 -171 -2 -4 -13 -89 -25 -191 -19 -177 -27 -230 -86 -599 -15 -91 -32 -203 -39 -250 -7 -47 -24 -141 -38 -210 -14 -69 -28 -145 -32 -170 -4 -25 -15 -81 -25 -125 -10 -44 -26 -118 -35 -165 -17 -91 -54 -254 -85 -385 -11 -44 -40 -165 -65 -270 -25 -104 -51 -212 -60 -240 -8 -27 -26 -93 -39 -145 -14 -52 -39 -144 -57 -205 -17 -60 -41 -146 -54 -190 -13 -44 -40 -134 -60 -200 -21 -66 -50 -162 -66 -213 -15 -52 -31 -101 -35 -110 -8 -19 -7 -16 -33 -102 -28 -92 -164 -476 -240 -680 -18 -47 -43 -114 -56 -150 -13 -36 -36 -94 -50 -130 -15 -36 -54 -132 -87 -215 -81 -200 -218 -521 -278 -650 -10 -22 -53 -116 -95 -210 -83 -183 -426 -874 -454 -915 -10 -14 -20 -32 -24 -42 -28 -78 -500 -895 -671 -1163 -11 -16 -34 -52 -51 -80 -169 -266 -370 -566 -565 -844 -76 -108 -451 -612 -489 -657 -14 -17 -51 -64 -81 -103 -30 -40 -63 -82 -73 -94 -11 -12 -40 -48 -65 -81 -26 -32 -63 -77 -82 -100 -19 -24 -53 -64 -75 -91 -22 -27 -45 -53 -50 -59 -6 -6 -20 -23 -31 -38 -12 -15 -41 -51 -66 -80 -25 -29 -90 -105 -144 -168 -54 -63 -119 -137 -145 -165 -25 -27 -62 -68 -80 -90 -19 -22 -43 -49 -55 -60 -12 -11 -43 -45 -69 -75 -142 -163 -754 -787 -946 -964 -35 -33 -100 -93 -145 -135 -44 -42 -121 -112 -170 -156 -143 -128 -186 -167 -234 -212 -25 -23 -64 -56 -86 -75 -57 -45 -156 -130 -174 -148 -8 -8 -51 -44 -95 -80 -44 -35 -82 -67 -85 -70 -3 -3 -54 -46 -115 -95 -60 -49 -124 -100 -141 -114 -16 -14 -45 -37 -64 -51 -19 -14 -48 -37 -64 -51 -31 -26 -620 -467 -686 -513 -19 -14 -69 -49 -110 -78 -41 -29 -109 -75 -150 -103 -41 -27 -77 -52 -80 -56 -10 -10 -318 -214 -475 -314 -27 -17 -82 -53 -122 -78 -77 -50 -421 -259 -515 -314 -32 -18 -86 -49 -120 -70 -35 -20 -81 -46 -103 -58 -22 -13 -93 -53 -158 -89 -392 -221 -984 -519 -1412 -711 -82 -37 -178 -80 -213 -96 -34 -16 -65 -29 -68 -29 -3 0 -29 -11 -57 -24 -70 -33 -207 -90 -412 -171 -93 -37 -188 -75 -210 -85 -22 -10 -60 -24 -85 -31 -25 -7 -54 -18 -65 -25 -11 -6 -38 -17 -60 -24 -22 -7 -53 -18 -70 -25 -36 -16 -239 -88 -425 -151 -74 -25 -139 -50 -145 -55 -5 -5 -17 -9 -26 -9 -9 0 -50 -12 -91 -26 -65 -22 -145 -48 -233 -74 -16 -5 -75 -23 -130 -40 -179 -56 -298 -91 -395 -116 -52 -14 -102 -28 -110 -31 -8 -3 -62 -19 -120 -34 -58 -15 -132 -35 -165 -44 -33 -9 -87 -22 -120 -30 -33 -7 -89 -21 -125 -30 -162 -41 -311 -77 -380 -91 -41 -8 -91 -19 -110 -24 -19 -4 -84 -18 -145 -30 -60 -12 -128 -26 -150 -31 -41 -10 -231 -45 -295 -55 -19 -3 -44 -9 -55 -14 -11 -5 -72 -15 -135 -24 -63 -9 -137 -20 -165 -26 -27 -6 -111 -19 -185 -30 -74 -11 -162 -25 -195 -30 -33 -6 -136 -20 -230 -31 -93 -11 -199 -25 -235 -29 -62 -9 -365 -41 -570 -60 -166 -16 -656 -50 -910 -62 -320 -16 -1376 -16 -1685 0 -262 13 -754 47 -905 62 -292 28 -513 52 -570 60 -36 5 -139 18 -230 29 -91 12 -187 25 -215 30 -27 5 -117 19 -200 31 -82 12 -170 25 -195 30 -25 5 -101 18 -170 29 -69 11 -145 24 -170 30 -25 5 -94 19 -155 30 -60 11 -130 25 -155 31 -25 5 -90 19 -145 30 -55 11 -118 24 -140 29 -58 14 -133 31 -185 41 -25 4 -72 15 -105 24 -33 9 -107 27 -165 40 -58 14 -159 39 -225 56 -410 107 -522 138 -550 150 -11 5 -60 20 -110 33 -127 35 -266 76 -290 87 -11 5 -47 16 -80 25 -66 18 -585 193 -735 249 -52 19 -122 44 -155 56 -61 22 -87 32 -127 50 -13 5 -48 18 -78 29 -109 37 -503 198 -678 277 -29 13 -55 24 -57 24 -2 0 -34 14 -70 30 -36 17 -68 30 -70 30 -3 0 -38 15 -78 34 -39 19 -99 46 -132 61 -33 15 -96 45 -140 65 -44 21 -107 50 -140 65 -82 37 -539 266 -634 317 -42 23 -98 53 -126 68 -168 89 -349 189 -385 211 -8 5 -40 22 -70 39 -62 33 -85 47 -290 168 -127 74 -277 166 -390 237 -19 12 -73 46 -120 75 -47 30 -158 102 -248 162 -90 59 -168 108 -173 108 -5 0 -9 4 -9 8 0 4 -15 16 -32 27 -31 18 -354 243 -471 328 -29 20 -82 58 -118 85 -184 132 -653 494 -774 597 -33 28 -96 80 -140 115 -79 64 -435 368 -445 380 -3 3 -39 34 -80 69 -41 35 -111 98 -155 140 -44 42 -134 125 -200 186 -155 141 -757 743 -905 905 -63 69 -144 156 -180 195 -36 38 -99 108 -140 155 -41 47 -79 90 -85 96 -5 6 -30 35 -55 64 -25 29 -67 79 -95 110 -79 89 -95 108 -215 255 -63 77 -117 142 -120 145 -36 34 -497 636 -674 880 -122 169 -312 445 -453 660 -42 63 -102 154 -134 203 -33 48 -59 90 -59 93 0 3 -13 24 -29 47 -113 165 -373 608 -611 1042 -131 239 -354 675 -458 895 -22 47 -60 128 -84 180 -25 52 -62 133 -83 180 -20 47 -47 108 -60 135 -12 28 -39 88 -60 135 -20 47 -45 103 -55 125 -10 22 -25 58 -33 80 -9 22 -37 90 -62 150 -25 61 -68 169 -96 240 -27 72 -54 139 -59 150 -8 18 -41 106 -115 305 -33 89 -88 241 -114 320 -12 36 -26 74 -30 85 -10 24 -143 440 -162 505 -7 25 -16 50 -19 55 -4 6 -13 33 -20 60 -7 28 -25 93 -41 145 -50 167 -131 464 -193 705 -54 213 -72 291 -137 585 -16 74 -34 155 -40 180 -5 25 -19 90 -29 145 -10 55 -24 120 -30 145 -6 25 -19 97 -30 160 -11 63 -24 138 -30 165 -5 28 -19 111 -31 185 -11 74 -25 158 -29 185 -5 28 -19 120 -31 205 -12 85 -25 180 -30 210 -4 30 -18 138 -29 240 -12 102 -25 219 -30 260 -19 156 -61 661 -82 975 -17 262 -17 1906 0 2175 20 311 65 841 82 975 5 39 18 156 30 260 12 105 25 215 30 245 8 51 15 102 40 290 6 41 14 98 19 125 5 28 19 111 30 185 30 195 32 203 39 220 3 8 13 65 23 125 10 61 22 130 28 155 5 25 19 92 30 150 11 58 24 123 29 145 5 22 17 76 26 120 24 120 37 177 46 205 4 14 13 52 20 85 7 33 23 101 35 150 12 50 30 124 39 165 10 41 21 84 26 95 4 11 18 63 30 115 11 52 25 104 30 115 4 11 18 58 30 105 12 47 26 99 31 115 12 41 55 188 89 310 15 55 33 114 40 130 7 17 21 59 30 95 20 72 62 197 90 275 11 28 24 70 30 95 6 25 15 54 20 65 6 11 37 97 70 190 32 94 77 220 100 280 22 61 46 124 51 140 6 17 20 49 30 72 10 24 19 46 19 49 0 7 143 370 165 419 8 17 48 111 90 210 42 99 92 213 111 253 19 41 34 76 34 78 0 3 21 49 46 102 25 53 69 146 96 207 46 100 332 674 377 755 11 19 61 112 112 205 85 158 240 431 369 652 69 118 332 541 380 613 10 14 88 131 174 260 87 129 179 265 204 302 108 154 376 523 410 563 4 6 52 69 107 140 128 168 394 501 509 636 50 59 123 144 161 190 39 45 75 87 81 93 5 6 61 70 123 141 63 72 170 191 240 265 69 74 151 162 181 195 92 101 657 662 800 796 258 240 264 245 436 396 55 48 133 117 174 153 40 36 88 76 106 90 17 14 99 81 180 150 82 69 167 139 189 157 22 17 78 62 125 100 47 38 97 77 111 88 15 11 125 94 245 186 412 311 547 406 1009 714 160 106 304 200 320 209 17 9 66 39 110 67 128 82 259 162 367 225 266 155 252 147 532 303 250 140 866 454 1081 550 39 18 77 36 86 41 9 5 65 31 125 58 60 28 135 62 166 76 31 14 59 26 62 26 2 0 33 13 68 29 35 16 108 48 163 70 55 23 114 48 130 56 17 8 57 24 90 36 33 12 65 25 70 29 6 4 28 13 50 20 22 7 58 21 80 31 22 10 72 30 110 44 246 93 466 175 505 188 25 8 97 34 160 57 63 23 137 48 164 55 27 8 72 23 100 34 28 10 105 36 171 56 66 20 161 50 210 65 235 75 556 166 735 210 41 10 95 25 120 33 25 8 61 18 80 22 69 13 165 36 185 45 11 5 38 11 60 15 22 3 85 17 140 30 113 28 269 62 490 107 83 16 166 34 185 38 51 12 85 18 175 30 44 7 89 15 100 20 11 4 88 18 170 30 83 12 168 25 190 30 22 5 110 18 195 30 85 11 178 25 205 30 56 10 171 25 320 40 115 12 237 26 345 41 41 5 172 17 290 26 118 9 258 19 310 23 101 8 445 28 595 34 183 7 1725 -4 1870 -14z m17947 -38082 c2 -25 8 -34 26 -36 31 -5 28 -32 -4 -32 l-25 0 2 -87 c1 -92 9 -113 40 -113 12 0 16 -5 13 -15 -8 -20 -53 -19 -76 2 -15 13 -18 32 -18 114 0 94 -1 98 -22 101 -13 2 -23 8 -23 13 0 6 10 11 23 13 17 3 22 10 22 31 0 51 37 59 42 9z m-999 -39 c12 -7 25 -16 28 -21 3 -5 22 1 43 13 27 16 45 20 71 15 55 -11 65 -35 65 -158 0 -101 -1 -108 -20 -108 -19 0 -20 7 -20 96 0 113 -8 134 -53 134 -57 0 -62 -9 -65 -125 -4 -95 -6 -105 -23 -105 -17 0 -19 8 -19 99 0 109 -10 131 -56 131 -58 0 -64 -11 -64 -125 0 -97 -1 -105 -19 -105 -18 0 -20 9 -23 103 -4 137 -1 157 23 157 10 0 19 -5 19 -10 0 -6 12 -4 28 4 33 18 56 20 85 5z m428 -6 c35 -21 37 -27 42 -155 4 -86 2 -98 -12 -98 -10 0 -22 5 -28 11 -8 8 -17 8 -31 0 -60 -32 -136 9 -130 71 4 44 55 78 114 78 39 0 44 3 44 23 0 13 -5 28 -12 35 -19 19 -76 15 -95 -8 -20 -23 -43 -26 -43 -7 0 15 37 51 60 60 29 11 62 7 91 -10z m248 3 c19 -10 29 -11 42 -3 10 6 20 9 23 6 10 -9 14 -201 6 -258 -5 -41 -14 -60 -34 -78 -36 -31 -102 -32 -140 -2 -35 28 -20 45 20 24 16 -8 39 -15 52 -15 30 0 62 34 62 65 0 22 -3 24 -19 15 -25 -13 -77 -13 -102 0 -30 16 -49 64 -49 122 0 102 68 163 139 124z m581 -1 c83 -43 96 -164 24 -230 -59 -55 -162 -19 -184 64 -18 67 3 127 57 162 34 23 65 24 103 4z"/>
<path d="M19135 37959 c-93 -5 -226 -13 -295 -19 -69 -5 -231 -17 -360 -26 -129 -9 -269 -20 -310 -24 -41 -4 -127 -13 -190 -19 -151 -15 -281 -30 -355 -41 -33 -4 -134 -18 -225 -29 -91 -12 -190 -26 -220 -31 -30 -6 -113 -19 -185 -30 -71 -10 -155 -24 -185 -30 -30 -6 -82 -15 -115 -20 -108 -18 -229 -40 -260 -49 -16 -5 -64 -15 -105 -21 -41 -7 -104 -19 -140 -27 -36 -8 -119 -25 -185 -39 -66 -14 -129 -29 -140 -34 -18 -7 -50 -15 -120 -27 -48 -8 -122 -25 -140 -33 -11 -4 -67 -19 -125 -33 -58 -13 -175 -43 -260 -66 -365 -98 -482 -131 -502 -142 -10 -5 -27 -9 -37 -9 -11 0 -23 -4 -26 -10 -3 -5 -15 -10 -25 -10 -11 0 -77 -18 -147 -41 -236 -76 -548 -179 -568 -188 -11 -6 -49 -19 -85 -31 -36 -12 -74 -26 -85 -31 -11 -5 -49 -18 -85 -30 -36 -12 -69 -24 -75 -29 -5 -4 -22 -10 -37 -14 -26 -6 -380 -143 -443 -170 -16 -8 -84 -35 -150 -61 -66 -27 -125 -52 -131 -56 -6 -5 -30 -16 -55 -24 -24 -9 -66 -26 -94 -39 -27 -13 -93 -43 -145 -66 -52 -23 -126 -57 -165 -75 -38 -17 -95 -43 -125 -56 -105 -47 -687 -339 -853 -428 -92 -50 -171 -91 -174 -91 -4 0 -14 -6 -22 -14 -9 -7 -61 -37 -116 -66 -55 -29 -111 -60 -125 -70 -14 -9 -56 -34 -95 -55 -456 -251 -1290 -802 -1794 -1184 -40 -31 -86 -65 -101 -76 -16 -11 -77 -58 -136 -105 -59 -47 -129 -101 -155 -121 -112 -86 -546 -445 -590 -488 -9 -9 -38 -34 -64 -56 -27 -22 -98 -85 -159 -141 -61 -55 -127 -113 -145 -130 -229 -195 -922 -890 -1226 -1230 -44 -49 -101 -111 -126 -139 -64 -69 -245 -281 -414 -485 -48 -58 -94 -114 -103 -125 -10 -11 -46 -56 -80 -100 -35 -44 -72 -90 -82 -102 -10 -12 -62 -79 -116 -150 -53 -70 -107 -140 -118 -154 -12 -15 -29 -37 -38 -50 -9 -13 -63 -87 -120 -164 -57 -77 -110 -150 -118 -161 -8 -12 -42 -60 -74 -105 -255 -361 -595 -887 -809 -1254 -103 -176 -217 -377 -217 -381 0 -3 -10 -21 -23 -42 -13 -20 -51 -89 -84 -152 -33 -63 -80 -151 -103 -195 -51 -95 -275 -544 -315 -630 -15 -33 -54 -115 -86 -183 -33 -68 -59 -125 -59 -128 0 -2 -16 -38 -35 -80 -19 -41 -35 -77 -35 -79 0 -3 -13 -34 -30 -70 -16 -36 -30 -68 -30 -70 0 -2 -11 -28 -24 -57 -25 -54 -92 -216 -152 -368 -19 -47 -40 -98 -48 -115 -7 -16 -32 -84 -55 -150 -24 -66 -48 -129 -53 -139 -32 -61 -283 -809 -373 -1111 -14 -49 -33 -110 -40 -135 -33 -109 -91 -321 -141 -520 -30 -118 -61 -237 -69 -265 -9 -27 -24 -93 -35 -145 -10 -52 -24 -113 -30 -135 -6 -22 -20 -83 -29 -135 -10 -52 -21 -102 -24 -110 -4 -8 -18 -76 -32 -150 -14 -74 -32 -164 -39 -200 -8 -36 -22 -110 -30 -165 -9 -55 -22 -134 -30 -175 -20 -102 -72 -437 -92 -590 -9 -69 -20 -154 -25 -190 -10 -77 -37 -321 -44 -400 -3 -30 -10 -93 -15 -140 -11 -99 -39 -471 -61 -825 -17 -265 -23 -1356 -9 -1640 13 -277 56 -903 70 -1035 6 -47 12 -105 14 -130 24 -235 38 -360 51 -445 8 -55 21 -152 29 -215 18 -143 84 -569 90 -579 3 -4 12 -54 21 -112 9 -57 25 -144 36 -194 20 -92 54 -261 89 -439 10 -54 26 -121 34 -150 8 -28 20 -78 27 -111 16 -89 140 -573 199 -780 136 -480 322 -1044 485 -1475 20 -52 47 -124 60 -160 13 -36 44 -114 70 -175 26 -60 55 -132 65 -160 10 -27 30 -77 45 -110 15 -33 42 -96 60 -140 189 -456 583 -1256 835 -1695 21 -36 57 -99 80 -140 23 -41 65 -113 91 -159 27 -46 49 -86 49 -88 0 -2 14 -22 30 -45 16 -22 30 -45 30 -50 0 -6 13 -28 29 -51 16 -23 60 -94 98 -157 39 -63 83 -135 99 -160 16 -25 34 -53 39 -62 6 -9 22 -34 36 -55 15 -21 97 -144 182 -273 86 -129 197 -291 247 -360 50 -69 98 -136 108 -150 9 -14 41 -59 72 -100 30 -41 62 -84 70 -96 40 -59 370 -484 474 -611 8 -10 50 -61 92 -113 43 -52 83 -100 89 -107 5 -6 28 -33 50 -59 69 -83 197 -230 405 -464 70 -79 128 -141 320 -344 96 -101 544 -548 646 -646 152 -143 240 -225 284 -265 25 -22 88 -78 140 -125 52 -47 158 -140 235 -205 77 -66 149 -128 160 -138 28 -26 408 -334 460 -374 6 -5 32 -26 60 -48 27 -22 59 -47 71 -55 13 -8 94 -69 181 -135 148 -113 192 -145 232 -170 9 -5 18 -13 21 -16 3 -4 46 -35 95 -71 184 -132 321 -227 481 -332 71 -47 134 -89 139 -93 51 -44 849 -533 869 -533 3 0 30 -16 60 -35 29 -19 98 -58 152 -88 55 -30 119 -65 144 -79 25 -14 95 -51 155 -83 61 -32 115 -61 120 -65 24 -18 625 -315 790 -390 292 -133 298 -136 335 -152 62 -28 253 -109 330 -140 41 -17 93 -39 115 -49 54 -24 298 -119 465 -180 74 -27 146 -54 160 -60 29 -13 132 -49 325 -114 77 -26 169 -58 205 -70 36 -13 133 -45 215 -70 83 -26 161 -51 175 -56 52 -18 488 -142 549 -155 36 -8 85 -22 110 -30 25 -9 82 -24 126 -34 44 -11 98 -24 120 -30 22 -7 78 -20 125 -30 47 -11 103 -24 125 -30 22 -6 83 -20 135 -31 52 -11 113 -25 135 -30 22 -5 85 -18 140 -29 55 -11 120 -25 145 -30 25 -6 97 -20 160 -31 63 -12 135 -25 160 -30 94 -20 340 -59 595 -95 99 -14 196 -30 215 -35 19 -5 105 -16 190 -24 175 -17 209 -21 300 -35 36 -6 157 -18 270 -26 113 -9 250 -20 305 -25 441 -36 662 -42 1385 -42 574 1 794 4 1005 18 432 27 837 61 1010 85 39 5 117 14 175 20 102 10 203 23 305 40 28 4 106 15 175 24 69 9 148 21 175 26 28 5 120 21 205 35 85 14 178 30 205 36 28 6 100 19 160 30 61 10 130 23 155 29 25 6 90 19 145 30 55 11 118 24 140 30 22 6 74 18 116 25 42 8 103 22 135 31 33 9 97 25 144 35 47 11 101 24 120 29 19 5 71 18 115 29 44 10 96 24 115 29 19 6 73 20 120 31 47 12 105 28 130 36 47 16 186 56 280 81 30 8 75 22 100 30 25 9 83 27 130 40 47 13 94 28 105 33 11 5 133 45 270 90 260 85 391 131 460 161 23 10 60 23 84 30 24 6 51 15 60 20 9 5 113 45 231 91 118 45 238 93 267 105 28 13 54 24 56 24 5 0 315 132 412 175 33 15 76 34 95 42 19 9 72 33 118 55 45 21 84 38 87 38 2 0 116 54 252 121 321 156 347 170 413 206 30 17 116 62 192 101 141 73 274 146 366 201 29 17 55 31 57 31 3 0 34 18 70 40 36 22 67 40 69 40 5 0 307 177 361 211 17 11 109 69 205 129 96 60 182 114 190 120 18 11 140 91 225 147 65 42 188 127 273 186 28 20 76 54 105 74 179 125 603 436 617 453 6 7 164 129 194 150 11 8 48 37 81 65 34 27 78 64 100 80 21 17 57 46 80 65 23 19 76 63 116 96 41 34 85 72 99 84 14 12 47 40 74 63 129 109 268 232 541 481 108 98 780 766 911 906 44 47 124 135 178 195 54 61 120 133 145 160 39 42 170 192 247 285 12 14 52 61 90 105 68 78 284 344 334 409 63 84 154 201 160 206 5 5 128 170 280 375 37 50 100 137 140 195 40 58 87 125 105 150 17 25 60 88 95 140 35 52 67 97 70 100 4 3 9 10 11 15 2 6 38 62 80 125 42 63 102 156 133 205 30 50 77 124 102 165 130 207 338 560 435 737 17 32 42 76 54 98 122 216 423 808 522 1025 54 117 77 168 114 248 22 45 39 84 39 87 0 2 16 38 35 79 19 41 35 78 35 82 0 4 11 30 24 58 14 28 41 92 62 141 20 50 47 113 59 140 12 28 28 68 35 90 7 22 21 58 31 80 20 43 82 207 135 350 18 50 52 142 75 205 54 149 228 672 273 820 40 134 81 272 103 350 9 30 24 82 33 115 9 33 25 89 34 125 10 36 22 81 27 100 6 19 17 67 25 105 8 39 19 79 23 90 12 27 51 200 51 224 0 11 4 22 9 25 5 3 11 20 14 38 3 18 15 76 26 128 11 52 34 163 51 245 18 83 36 168 41 190 5 22 18 92 30 155 11 63 24 135 29 160 6 25 19 101 30 170 12 69 25 150 31 180 5 30 19 120 30 200 22 155 34 237 44 285 3 17 13 98 21 180 9 83 19 177 24 210 12 90 29 263 41 420 6 77 15 190 20 250 21 256 28 416 39 872 16 638 0 1341 -39 1828 -5 61 -14 173 -20 250 -12 147 -27 303 -42 420 -4 39 -18 149 -29 245 -11 96 -25 200 -30 230 -5 30 -18 120 -29 200 -11 80 -24 168 -30 195 -5 28 -19 109 -30 180 -12 72 -25 150 -30 175 -5 25 -19 97 -30 160 -12 63 -25 133 -30 155 -5 22 -19 90 -31 150 -12 61 -26 126 -31 145 -4 19 -17 78 -28 130 -11 52 -25 113 -31 135 -6 22 -20 78 -30 125 -11 47 -24 101 -29 120 -5 19 -23 87 -39 150 -91 347 -138 519 -152 555 -4 11 -19 61 -33 110 -36 128 -78 267 -88 290 -5 11 -18 52 -29 90 -12 39 -30 93 -40 120 -10 28 -39 113 -65 190 -80 239 -168 483 -190 532 -8 17 -15 34 -15 37 0 8 -88 232 -111 283 -10 24 -19 46 -19 50 0 7 -51 129 -91 220 -11 23 -19 44 -19 47 0 2 -16 39 -35 80 -19 42 -35 78 -35 81 0 2 -12 30 -26 62 -76 170 -112 249 -161 352 -29 62 -53 115 -53 118 0 7 -267 541 -316 633 -25 47 -67 126 -94 175 -107 202 -313 565 -431 762 -84 139 -151 248 -180 293 -16 25 -64 100 -107 166 -141 222 -344 525 -460 684 -18 25 -58 81 -90 125 -63 88 -349 470 -393 525 -16 19 -84 105 -151 190 -135 170 -315 389 -332 405 -6 6 -31 35 -56 65 -25 30 -47 57 -50 60 -10 10 -96 107 -160 180 -65 74 -137 155 -175 196 -11 11 -74 79 -140 150 -215 233 -830 841 -1029 1019 -6 6 -56 51 -111 101 -107 97 -497 432 -580 499 -27 22 -52 42 -55 45 -15 16 -228 184 -370 294 -91 70 -172 133 -180 139 -9 7 -42 32 -75 56 -33 25 -85 63 -115 86 -30 23 -102 75 -160 116 -58 40 -125 88 -150 106 -212 153 -839 562 -990 648 -25 14 -80 48 -123 75 -43 28 -80 50 -83 50 -2 0 -28 16 -58 35 -30 19 -57 35 -59 35 -3 0 -34 17 -68 38 -35 22 -89 53 -119 69 -54 30 -72 40 -255 140 -338 185 -776 405 -1130 566 -71 32 -157 71 -190 86 -33 16 -71 32 -85 36 -14 4 -30 11 -35 15 -6 5 -37 18 -70 31 -33 12 -65 26 -71 30 -6 5 -30 15 -53 23 -23 9 -56 22 -74 30 -87 39 -453 185 -547 217 -30 10 -64 23 -75 28 -11 5 -85 33 -165 61 -80 28 -161 58 -180 65 -19 8 -100 35 -180 61 -80 25 -154 50 -165 55 -11 4 -51 18 -90 30 -38 12 -110 34 -159 50 -49 16 -98 29 -110 29 -12 0 -26 4 -31 8 -6 5 -44 19 -85 31 -41 12 -97 29 -125 38 -27 8 -97 28 -155 43 -58 15 -157 42 -220 59 -63 18 -171 45 -240 62 -69 17 -141 35 -160 40 -37 11 -110 27 -350 79 -247 53 -333 71 -385 80 -27 5 -79 15 -115 23 -36 8 -101 20 -145 26 -44 7 -98 16 -120 21 -106 23 -159 32 -265 46 -63 9 -137 20 -165 25 -27 5 -120 18 -205 29 -85 10 -171 22 -190 25 -134 21 -184 27 -335 41 -93 9 -206 20 -250 24 -217 22 -384 34 -845 61 -217 13 -1429 18 -1635 8z m-8130 -11540 c65 -16 144 -61 199 -110 68 -62 119 -151 157 -274 100 -320 237 -723 319 -935 16 -41 58 -154 94 -250 110 -296 136 -364 151 -397 8 -17 15 -34 15 -37 0 -4 15 -46 34 -94 19 -48 51 -130 71 -182 82 -213 107 -276 120 -305 8 -17 27 -67 44 -110 16 -44 95 -244 176 -445 81 -201 160 -396 175 -435 66 -168 141 -352 155 -380 8 -16 24 -56 36 -88 l21 -59 -28 -31 c-16 -18 -150 -155 -299 -305 -148 -150 -271 -279 -273 -286 -2 -8 18 -40 45 -72 26 -33 85 -106 131 -164 46 -58 96 -121 112 -140 16 -19 61 -75 101 -125 261 -323 265 -312 22 63 -19 29 -49 78 -66 107 -18 30 -69 115 -114 190 -46 75 -83 142 -83 149 0 7 35 45 78 85 42 41 161 157 263 258 144 143 193 186 212 186 23 0 111 -35 255 -99 29 -13 56 -24 60 -24 4 0 29 -11 57 -24 27 -13 95 -43 150 -66 55 -23 118 -50 140 -60 22 -10 87 -38 145 -63 58 -25 148 -64 200 -87 52 -23 124 -54 160 -70 65 -28 138 -60 238 -106 29 -13 55 -24 58 -24 3 0 29 -11 57 -24 29 -13 87 -40 129 -60 43 -20 80 -36 82 -36 3 0 33 -13 68 -29 35 -15 95 -42 133 -59 39 -17 97 -43 130 -57 55 -25 97 -43 150 -65 11 -5 80 -36 153 -69 73 -34 135 -61 138 -61 3 0 56 -23 117 -51 195 -89 211 -96 237 -104 14 -4 30 -11 35 -15 6 -5 51 -26 100 -48 50 -22 115 -51 145 -65 31 -14 80 -35 110 -47 30 -12 59 -25 65 -30 6 -5 35 -18 65 -29 30 -12 78 -32 105 -45 28 -13 70 -33 95 -44 43 -19 252 -113 295 -132 11 -5 59 -27 108 -49 48 -23 90 -41 92 -41 3 0 25 -9 50 -21 41 -19 50 -31 121 -162 43 -78 109 -198 148 -267 38 -69 79 -143 91 -165 12 -22 42 -76 67 -120 25 -44 64 -116 88 -160 24 -44 74 -136 113 -205 38 -69 130 -235 205 -369 74 -135 144 -261 155 -280 55 -98 217 -392 241 -436 14 -27 44 -81 66 -120 22 -38 49 -88 60 -110 11 -22 29 -53 39 -70 15 -26 148 -265 219 -395 55 -102 116 -212 169 -305 22 -38 72 -131 113 -205 40 -74 83 -151 95 -170 12 -19 44 -75 70 -124 26 -50 66 -124 90 -165 23 -42 62 -112 85 -156 24 -44 71 -129 105 -190 89 -155 165 -294 165 -299 0 -7 -68 -87 -156 -182 -46 -50 -100 -111 -121 -136 -38 -45 -170 -193 -358 -403 -55 -61 -115 -129 -134 -151 -19 -21 -55 -62 -80 -89 -25 -28 -77 -86 -116 -130 -147 -166 -205 -231 -401 -450 -55 -61 -139 -156 -189 -213 -52 -59 -97 -102 -108 -102 -21 0 -129 25 -206 47 -30 9 -88 24 -130 34 -42 10 -94 23 -116 29 -22 6 -76 20 -120 30 -125 29 -348 85 -395 100 -14 5 -68 18 -120 30 -52 11 -104 25 -115 30 -11 4 -65 18 -120 30 -55 12 -109 25 -120 30 -18 7 -116 32 -300 75 -112 26 -149 36 -165 45 -9 4 -36 11 -60 15 -64 11 -108 36 -166 97 -84 88 -112 144 -130 261 -8 56 -19 122 -24 147 -4 25 -15 90 -24 145 -8 55 -22 143 -31 195 -8 52 -24 156 -36 230 -11 74 -24 158 -29 185 -5 28 -23 142 -40 255 -18 113 -36 230 -41 260 -6 30 -19 114 -29 185 -11 72 -24 153 -30 180 -5 28 -14 86 -20 130 -15 114 -19 131 -38 152 -16 18 -94 86 -363 315 -63 54 -127 109 -144 123 -39 34 -51 45 -170 145 -55 46 -163 138 -240 205 -76 66 -154 131 -172 145 -32 25 -344 289 -353 300 -3 3 -45 39 -95 80 -49 41 -92 77 -95 80 -4 5 -144 122 -205 171 -27 22 -167 141 -181 154 -6 5 -57 48 -113 95 -56 47 -151 126 -210 175 -137 115 -197 165 -229 190 -14 11 -59 49 -102 85 -42 36 -97 81 -121 100 -24 19 -84 69 -134 110 -50 41 -124 102 -165 135 -41 33 -80 65 -86 70 -6 6 -30 26 -54 45 -24 19 -60 49 -80 65 -20 17 -54 44 -75 60 -344 268 -441 354 -539 475 -46 57 -156 223 -156 235 0 2 -11 30 -26 60 -43 96 -91 256 -103 350 -7 50 -16 113 -21 140 -13 68 -18 111 -41 325 -11 102 -24 214 -29 250 -5 36 -18 148 -30 250 -11 102 -25 212 -30 245 -4 33 -18 148 -30 255 -12 107 -25 220 -30 250 -4 30 -13 102 -19 160 -19 171 -40 350 -51 425 -6 39 -17 133 -25 210 -8 77 -20 176 -25 220 -13 97 -25 196 -40 335 -7 58 -16 134 -21 170 -13 93 -17 134 -39 325 -11 94 -21 188 -24 210 -3 22 -10 78 -15 125 -6 47 -17 146 -26 220 -9 74 -20 164 -25 200 -12 79 -25 198 -40 350 -6 63 -17 135 -23 160 -6 25 -11 104 -12 175 0 126 1 132 32 197 17 37 47 86 65 108 40 49 132 108 196 125 58 16 233 19 287 4z m17963 -1 c119 -30 232 -131 276 -246 43 -112 43 -144 6 -432 -4 -36 -13 -110 -19 -165 -21 -189 -31 -270 -41 -335 -5 -36 -19 -148 -30 -250 -11 -102 -24 -216 -30 -255 -5 -38 -19 -151 -30 -250 -11 -99 -25 -214 -30 -255 -6 -41 -19 -156 -30 -255 -12 -99 -25 -211 -30 -250 -6 -38 -19 -151 -30 -250 -11 -99 -24 -214 -30 -255 -5 -41 -16 -136 -25 -210 -17 -160 -32 -280 -46 -370 -5 -36 -16 -132 -24 -215 -8 -82 -17 -166 -20 -185 -3 -19 -10 -64 -16 -100 -5 -36 -17 -135 -25 -220 -9 -85 -20 -182 -24 -215 -5 -33 -18 -141 -29 -240 -12 -99 -25 -211 -31 -250 -5 -38 -14 -108 -20 -155 -53 -420 -257 -755 -630 -1030 -18 -14 -64 -50 -101 -80 -37 -30 -116 -94 -176 -142 -115 -92 -295 -238 -328 -266 -11 -10 -58 -49 -105 -87 -47 -38 -119 -97 -160 -131 -41 -35 -151 -126 -245 -204 -237 -196 -930 -777 -971 -815 -7 -5 -47 -39 -90 -75 -42 -36 -156 -132 -253 -215 -97 -82 -208 -177 -247 -210 -110 -93 -316 -267 -344 -291 -31 -26 -124 -107 -165 -143 -17 -14 -71 -60 -120 -101 -50 -41 -92 -77 -95 -80 -3 -3 -51 -45 -107 -94 -80 -68 -104 -94 -108 -119 -3 -18 -15 -90 -26 -162 -12 -71 -25 -150 -29 -175 -4 -25 -17 -110 -29 -190 -11 -80 -25 -170 -31 -200 -6 -30 -19 -113 -30 -185 -11 -71 -24 -157 -30 -190 -6 -33 -19 -121 -30 -195 -11 -74 -24 -160 -30 -190 -5 -30 -19 -116 -30 -190 -11 -74 -24 -157 -29 -185 -5 -27 -16 -95 -24 -150 -17 -120 -51 -188 -136 -275 -65 -66 -98 -85 -164 -95 -26 -4 -50 -11 -53 -16 -3 -5 -15 -9 -26 -9 -12 0 -35 -4 -52 -10 -33 -10 -194 -51 -316 -81 -211 -51 -288 -69 -315 -77 -64 -19 -114 -33 -215 -57 -175 -44 -253 -63 -295 -75 -22 -6 -76 -19 -120 -30 -44 -10 -98 -24 -120 -30 -22 -6 -67 -17 -100 -25 -33 -8 -87 -21 -120 -30 -33 -10 -102 -26 -153 -38 l-94 -21 -31 35 c-18 19 -52 57 -76 84 -24 28 -65 73 -90 100 -25 28 -61 68 -80 90 -19 22 -69 78 -111 125 -42 47 -133 148 -201 225 -177 200 -177 200 -275 310 -49 55 -93 105 -99 111 -5 6 -41 46 -80 90 -73 82 -166 185 -175 194 -3 3 -16 18 -28 34 -12 16 -46 55 -75 86 -56 61 -153 168 -260 290 -63 71 -79 102 -58 115 6 3 16 18 24 33 31 60 139 258 289 527 25 44 58 105 75 135 16 30 43 80 60 110 17 30 67 120 111 200 43 80 92 168 108 195 53 94 277 500 303 550 15 28 32 59 39 70 42 73 126 224 167 300 26 50 65 119 85 155 37 64 80 143 128 230 93 171 147 269 163 292 11 15 19 30 19 33 0 6 337 617 401 727 21 36 39 69 39 72 0 3 13 27 29 53 16 27 82 145 147 263 64 118 130 238 146 265 16 28 38 68 49 90 63 126 58 122 238 201 144 63 190 83 236 105 22 10 92 41 155 69 63 28 129 57 145 65 27 13 175 78 250 111 35 15 242 107 300 134 22 10 78 35 125 55 47 20 123 54 170 75 134 60 192 85 230 100 19 8 37 17 40 20 3 4 25 14 50 24 25 10 68 28 95 41 28 13 120 53 205 90 85 37 182 80 215 95 33 15 94 42 135 60 41 18 98 43 125 55 28 13 120 53 205 90 85 36 183 80 217 96 34 16 65 29 70 29 4 0 35 14 68 30 33 16 63 30 67 30 4 0 35 13 70 29 35 16 101 45 148 66 47 20 103 45 125 55 84 38 374 160 379 160 3 0 34 13 69 29 61 28 85 35 116 32 7 0 109 -95 225 -210 116 -114 235 -231 264 -258 28 -27 52 -55 52 -62 0 -7 -8 -25 -19 -39 -10 -15 -59 -94 -109 -177 -49 -82 -138 -226 -196 -319 -58 -92 -106 -171 -106 -173 0 -3 -9 -18 -21 -34 -11 -16 -16 -29 -10 -29 6 0 11 4 11 8 0 5 33 47 73 94 72 85 151 181 197 243 14 18 52 66 85 107 132 161 166 203 173 213 4 6 22 27 40 48 17 21 32 43 32 49 0 6 -134 145 -297 310 -164 164 -299 306 -301 316 -1 9 25 85 59 167 33 83 83 206 111 275 27 69 56 139 63 155 21 48 124 302 160 395 18 47 61 155 95 240 35 85 73 182 86 215 25 68 66 171 154 395 34 85 88 227 122 315 33 88 66 174 73 190 19 46 261 703 281 765 10 30 21 60 24 65 7 10 127 378 179 550 17 55 44 123 60 150 58 101 185 200 287 224 57 13 228 13 282 -1z m-14091 -13891 c106 -15 172 -29 218 -47 11 -4 47 -15 80 -25 90 -26 138 -53 132 -73 -3 -9 -19 -64 -35 -122 -17 -58 -37 -125 -45 -150 -8 -25 -20 -70 -27 -100 -14 -63 -31 -122 -40 -133 -5 -6 -107 29 -185 64 -26 11 -152 39 -230 51 -120 17 -247 21 -304 8 -71 -15 -201 -60 -201 -69 0 -4 -13 -14 -28 -23 -16 -9 -41 -41 -57 -70 -38 -68 -41 -161 -8 -223 46 -88 158 -162 368 -244 61 -24 129 -52 152 -62 24 -11 47 -19 52 -19 26 0 235 -108 320 -164 158 -106 236 -188 304 -323 71 -138 106 -360 77 -486 -33 -146 -45 -186 -73 -246 -38 -81 -86 -152 -141 -209 -142 -150 -378 -266 -631 -309 -120 -21 -514 -24 -640 -5 -93 14 -221 40 -250 52 -11 4 -47 15 -80 25 -33 9 -88 30 -122 46 -74 33 -75 37 -42 164 11 44 27 107 34 140 8 33 21 87 30 120 9 33 21 78 26 100 6 22 14 44 18 48 4 4 37 -5 72 -22 147 -68 242 -94 503 -141 73 -12 249 -13 290 -1 17 5 63 19 103 31 172 50 268 208 219 358 -44 132 -161 213 -481 332 -403 151 -610 304 -728 536 -65 126 -97 347 -68 463 5 20 15 61 21 91 36 161 167 345 320 450 76 51 207 119 247 126 18 3 36 10 39 15 3 5 15 9 28 9 12 0 26 4 32 9 5 5 61 16 124 25 63 9 116 19 119 22 11 11 381 -4 488 -19z m9842 0 c174 -28 355 -99 500 -196 30 -20 66 -44 80 -53 49 -33 173 -163 237 -248 139 -184 228 -411 276 -705 15 -88 15 -438 1 -525 -39 -241 -71 -353 -148 -518 -104 -219 -288 -428 -487 -550 -58 -36 -189 -98 -233 -111 -22 -7 -49 -16 -60 -21 -52 -21 -86 -30 -160 -40 -44 -7 -96 -16 -116 -21 -47 -12 -391 -12 -438 0 -20 5 -70 15 -111 22 -41 6 -86 16 -100 22 -46 18 -65 25 -115 43 -83 29 -218 106 -310 176 -91 70 -219 212 -282 313 -192 307 -272 690 -233 1111 6 60 15 125 20 144 5 19 19 76 30 125 12 50 30 108 40 130 9 22 21 51 25 65 12 38 94 203 111 221 8 8 14 19 14 23 0 5 24 41 54 81 122 161 272 288 462 387 99 52 295 115 384 124 41 3 82 10 90 15 25 14 355 4 469 -14z m-3024 -7 c431 -29 714 -162 856 -400 157 -265 143 -643 -33 -880 -81 -108 -222 -224 -318 -260 -55 -21 -56 -27 -4 -57 110 -64 214 -191 276 -336 31 -74 74 -219 108 -363 11 -45 24 -94 31 -110 6 -16 24 -78 39 -139 44 -170 75 -275 98 -334 12 -30 19 -58 16 -63 -3 -4 -153 -8 -334 -8 l-330 0 -21 42 c-27 52 -78 209 -112 343 -14 55 -32 123 -41 150 -8 28 -20 77 -26 110 -12 65 -18 84 -50 189 -43 134 -133 249 -218 277 -21 6 -43 16 -50 22 -8 6 -82 11 -185 11 l-172 1 -5 -570 -5 -570 -325 0 -325 0 -3 1446 -2 1447 37 6 c21 3 56 8 78 11 22 3 69 10 105 16 144 23 682 34 915 19z m-11550 -285 l0 -270 -570 -5 -570 -5 0 -300 0 -300 534 -3 c400 -2 537 -5 542 -14 10 -16 11 -500 1 -515 -6 -10 -130 -13 -543 -15 l-534 -3 0 -340 0 -340 600 -5 600 -5 0 -270 0 -270 -930 0 -930 0 -3 1455 c-1 800 0 1461 3 1468 3 10 189 12 902 10 l898 -3 0 -270z m2080 263 c2 -7 13 -47 25 -88 12 -41 30 -100 40 -130 10 -30 33 -102 50 -160 18 -58 45 -145 61 -195 16 -49 47 -151 70 -225 22 -74 47 -155 55 -180 9 -25 26 -83 40 -130 13 -47 29 -94 34 -105 5 -11 14 -40 21 -65 13 -52 62 -214 85 -280 9 -25 23 -70 31 -100 8 -30 23 -80 33 -110 10 -30 37 -116 60 -190 23 -74 54 -175 70 -225 15 -49 42 -137 60 -195 31 -102 50 -163 124 -399 20 -62 36 -122 36 -132 0 -19 -13 -19 -352 -17 l-352 3 -12 35 c-7 19 -26 80 -43 135 -16 55 -46 152 -65 215 -19 63 -42 142 -52 175 -9 33 -20 69 -24 80 -5 11 -11 33 -15 50 -13 57 5 55 -441 55 l-413 0 -21 -72 c-11 -40 -29 -102 -40 -138 -11 -36 -27 -92 -36 -125 -34 -130 -73 -273 -93 -340 -12 -38 -21 -71 -21 -72 0 -2 -154 -3 -341 -3 l-341 0 6 33 c3 17 20 77 37 132 71 233 90 296 124 410 20 66 46 154 60 195 13 41 40 129 60 195 42 140 97 319 130 425 39 127 82 269 120 395 20 66 45 145 55 175 10 30 28 93 41 140 12 47 25 90 29 95 4 6 13 33 20 60 7 28 20 75 30 105 10 30 28 89 40 130 11 41 25 84 30 95 5 11 14 40 20 65 7 25 25 85 41 134 16 49 29 97 29 107 0 9 7 25 16 33 14 14 68 16 445 16 335 0 430 -3 434 -12z m5680 -268 l0 -275 -395 -5 -395 -5 -5 -1185 -5 -1185 -327 -3 c-181 -1 -329 -1 -330 0 -2 2 -5 536 -8 1188 l-5 1185 -392 3 -393 2 0 273 c0 151 3 277 7 280 3 4 511 6 1127 5 l1121 -3 0 -275z m2143 268 c9 -9 12 -81 12 -263 0 -182 -3 -254 -12 -263 -9 -9 -148 -12 -565 -12 l-553 0 0 -335 0 -335 525 0 525 0 5 -22 c3 -13 5 -133 3 -268 l-3 -245 -527 -3 -528 -2 -2 -588 -3 -587 -327 -3 -328 -2 0 1470 0 1470 883 0 c673 0 886 -3 895 -12z m7127 -223 c304 -533 314 -549 409 -722 27 -48 63 -113 81 -143 105 -179 284 -543 376 -764 45 -109 99 -213 94 -181 -2 17 -9 131 -15 255 -6 124 -15 288 -21 365 -6 85 -9 392 -7 780 l3 640 300 0 300 0 0 -1465 0 -1465 -349 0 -348 0 -102 185 c-56 102 -119 214 -139 250 -55 98 -217 392 -255 463 -18 34 -48 87 -67 119 -19 31 -35 58 -35 61 0 3 -16 33 -36 67 -77 132 -414 797 -414 817 0 4 -9 25 -19 47 -11 23 -29 65 -41 94 -31 73 -43 67 -36 -20 13 -160 25 -798 25 -1425 l1 -663 -305 0 -305 0 0 1463 c0 805 3 1467 7 1470 4 4 178 6 387 5 l380 -3 131 -230z m4130 213 c3 -13 4 -138 3 -278 l-3 -255 -397 -3 -398 -2 0 -1178 c0 -647 -4 -1183 -8 -1190 -7 -9 -80 -12 -333 -10 l-324 3 -5 1185 -5 1185 -390 5 -390 5 -3 264 c-2 186 1 268 9 277 10 12 193 14 1125 14 l1114 0 5 -22z m-11585 -3872 c284 -83 440 -360 402 -714 -19 -171 -69 -281 -177 -390 -68 -67 -93 -83 -210 -132 -102 -43 -296 -40 -402 6 -88 38 -111 52 -168 106 -77 71 -126 151 -155 248 -12 41 -26 89 -31 106 -17 56 -11 238 10 317 39 143 51 167 131 271 78 102 210 177 345 197 64 9 197 1 255 -15z m9375 -8 c161 -55 257 -142 325 -291 47 -104 60 -172 60 -313 0 -156 -16 -237 -66 -341 -47 -96 -155 -211 -230 -243 -27 -12 -62 -27 -79 -35 -54 -24 -122 -35 -211 -35 -90 0 -140 10 -211 41 -24 11 -47 19 -51 19 -18 0 -117 82 -160 132 -49 58 -106 171 -124 245 -16 73 -22 299 -8 352 40 155 76 231 151 315 77 88 210 159 334 177 76 11 203 0 270 -23z m-7918 11 c208 -47 271 -87 324 -205 24 -53 29 -77 29 -145 0 -74 -3 -87 -37 -152 -29 -56 -49 -79 -95 -111 -31 -23 -57 -45 -57 -49 -1 -4 14 -21 32 -37 62 -54 107 -167 162 -405 8 -33 18 -73 24 -88 22 -58 23 -58 -126 -55 l-136 3 -22 60 c-11 33 -31 105 -44 160 -28 125 -56 196 -86 225 -29 27 -166 51 -193 33 -15 -9 -17 -37 -20 -247 l-2 -236 -130 0 -130 0 0 610 c0 694 -10 629 92 631 29 1 67 5 83 9 47 12 279 11 332 -1z m2705 0 c140 -27 198 -45 263 -78 96 -49 178 -132 216 -218 17 -37 34 -75 39 -84 18 -35 32 -184 26 -280 -6 -113 -44 -238 -95 -318 -43 -66 -129 -148 -193 -184 -59 -33 -158 -67 -194 -67 -12 0 -25 -4 -28 -9 -14 -22 -276 -32 -453 -16 l-93 8 0 612 c0 550 2 613 16 619 9 3 41 6 72 7 31 1 68 5 82 9 37 12 281 12 342 -1z m-15232 -486 c0 -263 3 -488 6 -500 6 -22 8 -23 238 -25 l231 -3 3 -118 3 -117 -373 2 -373 3 -3 605 c-1 333 0 611 3 618 3 9 40 12 135 12 l130 0 0 -477z m1750 367 l0 -110 -207 -1 c-115 -1 -212 -2 -218 -4 -5 -1 -18 -3 -27 -3 -16 -2 -18 -15 -18 -127 l0 -125 218 -2 217 -3 0 -110 0 -110 -215 -5 -215 -5 0 -145 0 -145 243 -3 c183 -2 242 -5 242 -15 1 -6 1 -57 2 -112 l1 -100 -379 0 -379 0 -3 605 c-1 333 0 611 3 618 3 9 87 12 370 12 l365 0 0 -110z m1338 -2 l-3 -113 -162 -3 -163 -2 -2 -503 -3 -502 -134 0 -133 0 1 490 c1 270 -2 496 -7 502 -5 9 -54 13 -162 15 l-155 3 -3 113 -3 112 466 0 466 0 -3 -112z m1627 -3 l0 -110 -160 -5 -160 -5 -3 -503 -2 -503 -135 3 -136 3 1 490 c0 270 -4 496 -8 502 -5 9 -54 13 -162 15 l-155 3 -3 99 c-1 55 0 106 2 113 5 11 90 13 463 11 l458 -3 0 -110z m785 -120 l5 -230 215 0 215 0 5 230 5 230 135 0 135 0 3 -618 2 -618 -137 3 -138 3 -3 258 -2 257 -220 0 -220 0 -2 -257 -3 -258 -137 -3 -138 -3 0 621 0 621 138 -3 137 -3 5 -230z m2058 123 c2 -83 0 -108 -10 -108 -7 -1 -108 0 -225 0 -129 0 -214 -3 -218 -9 -3 -6 -6 -63 -7 -128 l-1 -118 217 -3 217 -2 -3 -113 -3 -112 -212 -3 c-160 -2 -213 -5 -214 -15 0 -12 0 -252 1 -274 0 -10 59 -13 243 -15 l242 -3 0 -110 0 -110 -382 -3 -383 -2 0 620 0 620 368 -2 367 -3 3 -107z m1080 60 c31 -165 63 -345 78 -433 9 -55 21 -120 25 -145 5 -25 17 -101 26 -170 l17 -125 14 45 c8 25 22 97 33 160 10 63 23 135 29 160 6 25 19 90 29 145 19 104 26 136 41 195 5 19 17 77 26 128 l17 93 146 -3 146 -3 8 -45 c5 -25 12 -61 17 -80 5 -19 19 -93 30 -165 12 -71 28 -157 36 -190 7 -33 23 -125 35 -205 34 -228 34 -229 42 -200 4 14 13 72 22 130 9 58 20 128 26 155 5 28 14 77 19 110 11 68 26 151 40 210 5 22 18 90 28 150 10 61 22 116 26 123 11 17 276 17 276 -1 0 -6 -9 -44 -20 -82 -12 -39 -29 -108 -40 -155 -10 -47 -37 -157 -60 -245 -23 -88 -48 -187 -55 -220 -8 -33 -21 -87 -30 -120 -9 -33 -25 -96 -36 -140 -10 -44 -24 -98 -30 -120 -5 -22 -16 -62 -22 -90 l-12 -50 -150 0 -150 0 -17 95 c-9 52 -23 127 -32 165 -8 39 -17 88 -21 110 -3 22 -10 60 -15 85 -26 126 -33 166 -49 292 -10 76 -21 141 -24 145 -4 3 -7 0 -7 -8 -1 -19 -47 -274 -59 -324 -5 -22 -19 -87 -31 -145 -11 -58 -25 -123 -31 -145 -5 -22 -18 -86 -28 -143 -10 -56 -24 -109 -31 -117 -10 -12 -41 -15 -154 -15 l-142 0 -11 43 c-16 55 -60 252 -79 347 -8 41 -19 89 -24 105 -5 17 -18 73 -30 125 -12 52 -29 122 -37 155 -8 33 -21 89 -28 125 -7 36 -27 121 -44 189 -17 69 -31 131 -31 138 0 10 32 13 144 13 l145 0 9 -52z m5074 -445 l3 -498 235 -5 235 -5 0 -115 0 -115 -372 -3 -373 -2 0 620 0 620 135 0 135 0 2 -497z m3238 237 c0 -143 4 -260 9 -260 4 0 35 42 67 93 32 50 97 150 144 220 106 160 118 179 126 195 5 9 49 12 170 12 90 0 164 -3 164 -8 0 -6 -158 -223 -187 -257 -19 -21 -159 -208 -175 -232 -15 -24 -15 -29 -1 -57 14 -29 158 -274 257 -441 49 -82 50 -85 99 -170 20 -36 37 -68 37 -70 0 -3 -71 -5 -158 -5 l-159 0 -12 28 c-7 15 -48 90 -90 167 -43 77 -101 184 -130 237 -31 58 -57 95 -64 92 -7 -2 -30 -29 -52 -60 l-40 -55 -5 -202 -5 -202 -132 -3 -133 -3 0 621 0 620 135 0 135 0 0 -260z m1540 203 c18 -31 44 -79 60 -107 15 -28 39 -71 52 -96 92 -164 132 -241 191 -363 37 -76 67 -142 67 -147 0 -5 5 -21 12 -35 23 -50 30 -25 24 83 -3 59 -9 246 -12 415 l-6 308 129 -3 128 -3 0 -615 0 -615 -142 -3 -142 -3 -24 43 c-129 223 -417 788 -417 816 0 4 -7 17 -15 28 -13 17 -15 -30 -12 -431 l2 -450 -122 -3 -123 -3 0 621 0 620 159 0 159 0 32 -57z m3025 30 c3 -16 10 -48 15 -73 5 -25 17 -92 26 -150 9 -58 20 -123 24 -145 5 -22 20 -110 34 -195 14 -85 30 -177 36 -203 5 -27 10 -59 10 -73 0 -13 4 -24 10 -24 11 0 15 15 30 105 5 33 15 83 21 110 5 28 19 97 30 155 10 58 24 125 29 150 6 25 20 92 30 150 24 133 38 199 45 211 4 5 71 9 150 9 142 0 145 0 149 -22 3 -13 13 -70 22 -128 9 -58 20 -123 25 -145 4 -22 17 -92 28 -155 11 -63 25 -140 31 -170 13 -70 39 -241 40 -259 0 -8 3 -12 6 -9 7 8 28 115 54 278 12 74 25 151 31 170 9 32 49 244 71 369 5 30 11 58 14 63 6 10 274 11 274 1 -1 -15 -110 -462 -155 -638 -3 -11 -24 -90 -46 -175 -23 -85 -47 -182 -54 -215 -7 -33 -22 -91 -32 -130 l-18 -70 -150 0 -150 0 -7 40 c-4 22 -17 92 -28 155 -12 63 -25 133 -29 155 -5 22 -19 96 -31 165 -12 69 -26 145 -31 170 -5 25 -11 65 -14 90 -13 95 -16 99 -30 45 -6 -27 -20 -95 -29 -150 -10 -55 -29 -145 -42 -200 -13 -55 -30 -136 -38 -180 -9 -44 -20 -100 -26 -125 -6 -25 -16 -72 -23 -105 l-12 -60 -150 0 -150 0 -14 60 c-7 33 -17 69 -21 80 -4 11 -20 76 -35 145 -42 191 -83 371 -95 415 -5 22 -17 76 -26 120 -8 44 -24 109 -34 145 -10 36 -24 99 -31 140 -6 41 -16 79 -21 85 -4 5 -8 17 -8 27 0 17 12 18 145 18 l145 0 5 -27z"/>
<path d="M24331 12020 c-41 -5 -83 -13 -95 -18 -12 -6 -37 -16 -56 -23 -212 -78 -390 -338 -440 -644 -6 -38 -15 -92 -21 -118 -12 -62 -12 -301 0 -364 5 -26 15 -82 21 -123 33 -203 130 -392 262 -515 140 -130 313 -182 513 -156 250 34 448 225 543 524 57 177 80 396 63 583 -15 155 -24 201 -62 322 -49 152 -120 272 -220 368 -140 134 -304 186 -508 164z"/>
<path d="M21320 12032 c-41 -4 -81 -11 -87 -15 -10 -6 -13 -99 -13 -408 l0 -399 198 0 c217 0 270 8 370 59 62 32 120 82 157 139 26 40 65 173 65 221 0 39 -33 169 -53 208 -39 74 -148 154 -252 182 -49 14 -283 21 -385 13z"/>
<path d="M11743 11962 c-6 -20 -16 -59 -22 -87 -6 -27 -23 -99 -37 -160 -14 -60 -34 -150 -44 -198 -11 -49 -22 -92 -24 -96 -6 -9 -66 -223 -96 -336 -9 -38 -30 -112 -46 -162 -15 -51 -24 -96 -20 -100 4 -5 147 -9 317 -11 287 -3 309 -2 309 14 0 23 -29 143 -40 169 -5 11 -19 58 -30 105 -12 47 -26 94 -31 105 -5 11 -18 56 -30 100 -11 44 -27 100 -36 125 -8 25 -23 77 -33 115 -10 39 -26 97 -35 130 -9 33 -22 87 -30 120 -18 83 -44 175 -53 191 -5 9 -11 1 -19 -24z"/>
<path d="M19450 8389 c-76 -34 -115 -81 -161 -194 -22 -55 -24 -74 -24 -210 1 -148 1 -151 33 -220 32 -67 86 -135 126 -157 48 -26 125 -36 182 -22 129 30 207 143 224 328 28 295 -87 494 -285 495 -29 0 -69 -8 -95 -20z"/>
<path d="M28810 8389 c-89 -40 -155 -134 -181 -258 -17 -84 -6 -283 20 -350 60 -155 176 -228 315 -196 72 17 120 54 163 126 43 72 55 123 60 259 7 174 -22 273 -102 359 -74 79 -181 103 -275 60z"/>
<path d="M20940 8390 c-6 -12 -9 -77 -8 -167 l3 -148 106 0 c96 0 109 2 141 25 53 36 73 75 73 145 0 119 -59 165 -213 165 -81 0 -93 -2 -102 -20z"/>
<path d="M23680 8403 c-14 -3 -29 -8 -34 -13 -9 -9 -9 -791 0 -800 13 -12 203 0 250 16 108 37 191 127 221 241 21 81 21 256 0 323 -21 71 -79 146 -140 183 -74 45 -203 67 -297 50z"/>
<path d="M38540 898 c-15 -16 -20 -35 -20 -74 0 -86 51 -128 108 -88 19 13 22 24 22 89 0 63 -3 76 -19 85 -32 16 -69 12 -91 -12z"/>
<path d="M39102 897 c-33 -35 -31 -119 3 -152 76 -77 165 44 105 143 -16 26 -26 32 -53 32 -22 0 -41 -8 -55 -23z"/>
</g>
</svg>
